<svg preserveAspectRatio="none" width="100%" height="100%" overflow="visible" style="display: block;" viewBox="0 0 111 23" fill="none" xmlns="http://www.w3.org/2000/svg">
<g id="Home Container">
<path id="Vector 1" d="M24.0791 4.55078C24.3379 6.21618 24.7923 7.52128 25.5137 8.57129C26.5522 10.0829 28.1004 11.0023 30.2188 11.7451C28.9035 12.1992 27.8649 12.8209 27.0459 13.5557C25.9058 14.5786 25.217 15.7957 24.7881 17.0137C24.524 17.7636 24.357 18.5166 24.2441 19.2275C23.9313 17.8535 23.4823 16.6703 22.7842 15.6377C21.7077 14.0456 20.0787 12.8648 17.6025 11.8496C20.6645 10.7869 22.3715 8.79837 23.3438 6.6582C23.6598 5.96234 23.8957 5.24923 24.0791 4.55078Z" fill="var(--fill-0, #F6F8F7)" stroke="var(--stroke-0, #F6F8F7)"/>
<path id="Vector 2" d="M55.5674 4.70117C55.8132 6.29013 56.2309 7.54443 56.8848 8.55957C57.8619 10.0765 59.3226 10.9994 61.3193 11.7451C60.076 12.2017 59.0945 12.8273 58.3223 13.5664C57.2512 14.5915 56.607 15.809 56.2061 17.0234C55.9779 17.7145 55.8285 18.4082 55.7236 19.0693C55.4325 17.7674 55.0216 16.6398 54.3945 15.6504C53.3827 14.054 51.8479 12.8677 49.5137 11.8486C52.4039 10.7816 54.008 8.78411 54.918 6.64746C55.1916 6.00496 55.4014 5.34778 55.5674 4.70117Z" fill="var(--fill-0, #F6F8F7)" stroke="var(--stroke-0, #F6F8F7)"/>
<path id="Vector 3" d="M87.0791 4.55078C87.3379 6.21618 87.7923 7.52128 88.5137 8.57129C89.5522 10.0829 91.1004 11.0023 93.2188 11.7451C91.9035 12.1992 90.8649 12.8209 90.0459 13.5557C88.9058 14.5786 88.217 15.7957 87.7881 17.0137C87.524 17.7636 87.357 18.5166 87.2441 19.2275C86.9313 17.8535 86.4823 16.6703 85.7842 15.6377C84.7077 14.0456 83.0787 12.8648 80.6025 11.8496C83.6645 10.7869 85.3715 8.79837 86.3438 6.6582C86.6598 5.96234 86.8957 5.24923 87.0791 4.55078Z" fill="var(--fill-0, #F6F8F7)" stroke="var(--stroke-0, #F6F8F7)"/>
</g>
</svg>
