<svg preserveAspectRatio="none" width="100%" height="100%" overflow="visible" style="display: block;" viewBox="0 0 25.0261 37.3999" fill="none" xmlns="http://www.w3.org/2000/svg">
<g id="Project 3 Icon Container">
<circle id="Ellipse 8" cx="4.56792" cy="4.56792" r="4.56792" fill="var(--fill-0, #223168)"/>
<circle id="Ellipse 13" cx="17.1298" cy="4.56792" r="4.56792" fill="var(--fill-0, #223168)"/>
<circle id="Ellipse 14" cx="17.1297" cy="17.9862" r="2.28396" fill="var(--fill-0, #223168)"/>
<circle id="Ellipse 11" cx="4.56793" cy="17.986" r="4.56792" fill="var(--fill-0, #223168)"/>
<circle id="Ellipse 12" cx="4.56793" cy="31.119" r="4.56792" fill="var(--fill-0, #223168)"/>
<path id="Vector 7" d="M16.9593 28.8392C17.6274 28.4142 18.7439 25.651 19.2187 24.3225C19.152 25.8314 19.102 28.9573 19.436 29.3901C19.77 29.8229 22.4281 30.9817 23.7154 31.5071C22.3837 31.4499 19.5609 31.4076 18.9231 31.696C18.2854 31.9843 17.1069 34.7576 16.5973 36.1082C16.6956 34.7259 16.8031 31.7981 16.4464 31.1451C16.0897 30.4921 13.2867 29.3668 11.9298 28.8857C13.3279 29.0473 16.2911 29.2642 16.9593 28.8392Z" fill="var(--fill-0, #3A9679)"/>
</g>
</svg>
