<svg preserveAspectRatio="none" width="100%" height="100%" overflow="visible" style="display: block;" viewBox="0 0 60 60" fill="none" xmlns="http://www.w3.org/2000/svg">
<g id="Project 1 Icon">
<rect width="60" height="60" rx="14.4" fill="var(--fill-0, white)"/>
<path id="Union" d="M43.0073 24.438C43.5959 26.1408 43.8882 27.9973 43.8882 30.0005C43.8881 33.1649 43.1631 35.9763 41.687 38.4058L41.686 38.4077L41.6841 38.4097C40.213 40.8001 38.1598 42.6648 35.5474 44.0015C32.9242 45.3434 29.8711 45.9995 26.4146 45.9995H16.0483V39.0366C16.3241 38.8999 16.6014 38.7597 16.8813 38.6196V45.1665H16.8833V38.6187C18.1077 38.0059 19.3718 37.3626 20.6616 36.6948V43.2935H26.4146C30.4295 43.2935 33.4533 42.1087 35.6011 39.8286L35.605 39.8247C37.7861 37.5371 38.9282 34.3006 38.9282 30.0005C38.9282 28.8913 38.8509 27.853 38.7007 26.8833C40.1834 26.0469 41.626 25.2282 43.0073 24.438ZM39.7456 29.1577C39.7559 29.4346 39.7612 29.7155 39.7612 30.0005C39.7612 34.449 38.5771 37.9156 36.2085 40.3999C33.8686 42.8842 30.6032 44.1265 26.4146 44.1265H19.8296V44.1274H26.4165C30.6048 44.1273 33.8697 42.885 36.2095 40.4009C38.5781 37.9166 39.7621 34.4498 39.7622 30.0015C39.7622 29.7161 39.7562 29.4349 39.7456 29.1577ZM26.4146 14.0005C29.8711 14.0005 32.9243 14.6566 35.5474 15.9985C38.1617 17.3361 40.2147 19.2164 41.6851 21.6353C41.7833 21.795 41.8771 21.9572 41.9683 22.1206C44.2787 21.0361 46.7099 19.9255 49.2729 18.7935C46.2331 20.6059 42.4564 22.8716 38.3472 25.2817C38.2703 24.9621 38.1843 24.6509 38.0894 24.3481C37.5312 22.7089 36.6989 21.3226 35.605 20.1753L35.6011 20.1714C33.4533 17.8914 30.4294 16.7075 26.4146 16.7075H20.6616V34.4507C20.6608 34.4512 20.6595 34.4511 20.6587 34.4517V35.1792C17.1224 37.0228 13.7355 38.676 10.7271 39.9595C12.3477 38.7743 14.1136 37.5491 16.0483 36.2798V14.0005H26.4146ZM16.8813 35.7368L16.8833 35.7358V14.8345H26.4165C26.6228 14.8345 26.8278 14.8355 27.0308 14.8403C26.8273 14.8355 26.6213 14.8335 26.4146 14.8335H16.8813V35.7368ZM35.1694 16.7417C35.3249 16.8213 35.4782 16.9033 35.6294 16.9868C35.4778 16.9031 35.3243 16.8205 35.1685 16.7407C35.0255 16.6676 34.8808 16.5966 34.7349 16.5278L35.1694 16.7417Z" fill="var(--fill-0, #2F0FCF)"/>
</g>
</svg>
