<svg preserveAspectRatio="none" width="100%" height="100%" overflow="visible" style="display: block;" viewBox="0 0 31.912 43.2074" fill="none" xmlns="http://www.w3.org/2000/svg">
<g id="Icon">
<path id="Vector 9" d="M7.86748 32.8164L7.86748 10.3019" stroke="url(#paint0_linear_35_1855)" stroke-width="6.11128"/>
<path id="Vector 11" d="M24.0972 33.7428C25.4721 32.7643 25.7936 30.8565 24.8151 29.4815C23.8366 28.1066 21.9287 27.7852 20.5538 28.7637L22.3255 31.2532L24.0972 33.7428ZM14.9992 36.467L16.7709 38.9566L24.0972 33.7428L22.3255 31.2532L20.5538 28.7637L13.2275 33.9774L14.9992 36.467Z" fill="var(--stroke-0, white)"/>
<path id="Vector 10" d="M1.15214 21.0759C-0.167944 22.1272 -0.385808 24.0496 0.665529 25.3697C1.71687 26.6898 3.63929 26.9077 4.95937 25.8563L3.05576 23.4661L1.15214 21.0759ZM3.05576 23.4661L4.95937 25.8563L17.0946 16.1916L15.191 13.8014L13.2874 11.4112L1.15214 21.0759L3.05576 23.4661Z" fill="var(--stroke-0, white)"/>
<circle id="Ellipse 10" cx="28.769" cy="26.1881" r="3.14295" fill="var(--fill-0, white)"/>
<g id="Ellipse 9">
<mask id="path-5-inside-1_35_1855" fill="white">
<path d="M4.81038 10.3781C4.79982 9.09523 5.11628 7.83078 5.7299 6.70408C6.34352 5.57739 7.23407 4.62559 8.31753 3.9385C9.40099 3.25141 10.6416 2.85168 11.9224 2.77701C13.2032 2.70234 14.4819 2.95521 15.6379 3.51175C16.7938 4.06829 17.7889 4.91015 18.5293 5.95792C19.2697 7.00568 19.7309 8.2248 19.8695 9.50025C20.0081 10.7757 19.8195 12.0654 19.3214 13.2478C18.8233 14.4301 18.0323 15.466 17.0228 16.2579L13.2468 11.4441C13.4385 11.2938 13.5887 11.0971 13.6833 10.8726C13.7778 10.6482 13.8136 10.4033 13.7873 10.1611C13.761 9.91897 13.6734 9.6875 13.5329 9.48857C13.3923 9.28964 13.2034 9.1298 12.9839 9.02413C12.7644 8.91847 12.5216 8.87046 12.2785 8.88463C12.0353 8.89881 11.7997 8.97471 11.594 9.10516C11.3883 9.23561 11.2193 9.41632 11.1027 9.63024C10.9862 9.84416 10.9262 10.0842 10.9282 10.3278L4.81038 10.3781Z"/>
</mask>
<path d="M4.81038 10.3781C4.79982 9.09523 5.11628 7.83078 5.7299 6.70408C6.34352 5.57739 7.23407 4.62559 8.31753 3.9385C9.40099 3.25141 10.6416 2.85168 11.9224 2.77701C13.2032 2.70234 14.4819 2.95521 15.6379 3.51175C16.7938 4.06829 17.7889 4.91015 18.5293 5.95792C19.2697 7.00568 19.7309 8.2248 19.8695 9.50025C20.0081 10.7757 19.8195 12.0654 19.3214 13.2478C18.8233 14.4301 18.0323 15.466 17.0228 16.2579L13.2468 11.4441C13.4385 11.2938 13.5887 11.0971 13.6833 10.8726C13.7778 10.6482 13.8136 10.4033 13.7873 10.1611C13.761 9.91897 13.6734 9.6875 13.5329 9.48857C13.3923 9.28964 13.2034 9.1298 12.9839 9.02413C12.7644 8.91847 12.5216 8.87046 12.2785 8.88463C12.0353 8.89881 11.7997 8.97471 11.594 9.10516C11.3883 9.23561 11.2193 9.41632 11.1027 9.63024C10.9862 9.84416 10.9262 10.0842 10.9282 10.3278L4.81038 10.3781Z" fill="var(--fill-0, white)" stroke="var(--stroke-0, white)" stroke-width="12.2226" mask="url(#path-5-inside-1_35_1855)"/>
</g>
<g id="Ellipse 11">
<mask id="path-6-inside-2_35_1855" fill="white">
<path d="M4.81087 32.8013C4.80802 34.2115 5.20009 35.5943 5.94267 36.7932C6.68526 37.992 7.74869 38.959 9.01254 39.5846C10.2764 40.2102 11.6902 40.4694 13.0937 40.3329C14.4973 40.1964 15.8346 39.6696 16.9542 38.8121L13.2344 33.9549C13.0219 34.1177 12.7679 34.2177 12.5015 34.2436C12.235 34.2696 11.9666 34.2203 11.7266 34.1016C11.4866 33.9828 11.2847 33.7992 11.1437 33.5716C11.0028 33.344 10.9283 33.0814 10.9289 32.8137L4.81087 32.8013Z"/>
</mask>
<path d="M4.81087 32.8013C4.80802 34.2115 5.20009 35.5943 5.94267 36.7932C6.68526 37.992 7.74869 38.959 9.01254 39.5846C10.2764 40.2102 11.6902 40.4694 13.0937 40.3329C14.4973 40.1964 15.8346 39.6696 16.9542 38.8121L13.2344 33.9549C13.0219 34.1177 12.7679 34.2177 12.5015 34.2436C12.235 34.2696 11.9666 34.2203 11.7266 34.1016C11.4866 33.9828 11.2847 33.7992 11.1437 33.5716C11.0028 33.344 10.9283 33.0814 10.9289 32.8137L4.81087 32.8013Z" fill="var(--fill-0, white)" stroke="var(--stroke-0, white)" stroke-width="12.2226" mask="url(#path-6-inside-2_35_1855)"/>
</g>
</g>
<defs>
<linearGradient id="paint0_linear_35_1855" x1="8.36748" y1="10.3019" x2="8.36748" y2="32.7811" gradientUnits="userSpaceOnUse">
<stop stop-color="white"/>
<stop offset="0.40659" stop-color="#C5C8FF"/>
<stop offset="1" stop-color="white"/>
</linearGradient>
</defs>
</svg>
