<svg preserveAspectRatio="none" width="100%" height="100%" overflow="visible" style="display: block;" viewBox="0 0 79 23" fill="none" xmlns="http://www.w3.org/2000/svg">
<g id="Home Container" clip-path="url(#clip0_33_1836)">
<path id="Vector 1" d="M8.0791 4.55078C8.33786 6.21618 8.79232 7.52128 9.51367 8.57129C10.5522 10.0829 12.1004 11.0023 14.2188 11.7451C12.9035 12.1992 11.8649 12.8209 11.0459 13.5557C9.90582 14.5786 9.217 15.7957 8.78809 17.0137C8.52403 17.7636 8.35703 18.5166 8.24414 19.2275C7.93129 17.8535 7.48233 16.6703 6.78418 15.6377C5.70773 14.0456 4.07875 12.8648 1.60254 11.8496C4.66448 10.7869 6.37154 8.79837 7.34375 6.6582C7.65984 5.96234 7.8957 5.24923 8.0791 4.55078Z" fill="var(--fill-0, #F6F8F7)" stroke="var(--stroke-0, #F6F8F7)"/>
<path id="Vector 2" d="M39.5674 4.70117C39.8132 6.29013 40.2309 7.54443 40.8848 8.55957C41.8619 10.0765 43.3226 10.9994 45.3193 11.7451C44.076 12.2017 43.0945 12.8273 42.3223 13.5664C41.2512 14.5915 40.607 15.809 40.2061 17.0234C39.9779 17.7145 39.8285 18.4082 39.7236 19.0693C39.4325 17.7674 39.0216 16.6398 38.3945 15.6504C37.3827 14.054 35.8479 12.8677 33.5137 11.8486C36.4039 10.7816 38.008 8.78411 38.918 6.64746C39.1916 6.00496 39.4014 5.34778 39.5674 4.70117Z" fill="var(--fill-0, #F6F8F7)" stroke="var(--stroke-0, #F6F8F7)"/>
<path id="Vector 3" d="M71.0791 4.55078C71.3379 6.21618 71.7923 7.52128 72.5137 8.57129C73.5522 10.0829 75.1004 11.0023 77.2188 11.7451C75.9035 12.1992 74.8649 12.8209 74.0459 13.5557C72.9058 14.5786 72.217 15.7957 71.7881 17.0137C71.524 17.7636 71.357 18.5166 71.2441 19.2275C70.9313 17.8535 70.4823 16.6703 69.7842 15.6377C68.7077 14.0456 67.0787 12.8648 64.6025 11.8496C67.6645 10.7869 69.3715 8.79837 70.3438 6.6582C70.6598 5.96234 70.8957 5.24923 71.0791 4.55078Z" fill="var(--fill-0, #F6F8F7)" stroke="var(--stroke-0, #F6F8F7)"/>
</g>
<defs>
<clipPath id="clip0_33_1836">
<rect width="79" height="23" fill="white"/>
</clipPath>
</defs>
</svg>
